<svg xmlns="http://www.w3.org/2000/svg" viewBox="0 0 240 240" role="img" aria-label="仰韶陶纹标志">
  <defs>
    <radialGradient id="g" cx="50%" cy="46%" r="62%">
      <stop offset="0" stop-color="#f6d48a"/>
      <stop offset="0.55" stop-color="#c9783f"/>
      <stop offset="1" stop-color="#6f2f22"/>
    </radialGradient>
    <filter id="soft" x="-20%" y="-20%" width="140%" height="140%">
      <feDropShadow dx="0" dy="18" stdDeviation="18" flood-color="#000" flood-opacity=".36"/>
    </filter>
  </defs>
  <circle cx="120" cy="120" r="94" fill="url(#g)" filter="url(#soft)"/>
  <circle cx="120" cy="120" r="70" fill="none" stroke="#160e0b" stroke-opacity=".8" stroke-width="8"/>
  <path d="M63 121c25-34 45-52 60-52 19 0 28 21 12 34-16 13-2 40 23 27 13-7 20-22 19-42 21 23 27 54 9 80-18 28-55 38-89 23-33-15-48-44-34-70Z" fill="#120d0a" opacity=".9"/>
  <path d="M92 92c14 0 24 9 24 21s-10 21-24 21-24-9-24-21 10-21 24-21Zm55 26c12 0 22 8 22 18s-10 18-22 18-22-8-22-18 10-18 22-18Z" fill="#f8d990"/>
  <path d="M58 88c39-36 86-42 124-13M57 155c41 31 89 35 128 8" fill="none" stroke="#f8d990" stroke-width="7" stroke-linecap="round" opacity=".92"/>
</svg>
